<?xml version="1.0" encoding="UTF-8"?>
<!DOCTYPE svg PUBLIC "-//W3C//DTD SVG 1.1//EN" "http://www.w3.org/Graphics/SVG/1.1/DTD/svg11.dtd">
<!-- Creator: CorelDRAW 2019 (64-Bit) -->
<svg xmlns="http://www.w3.org/2000/svg" xml:space="preserve" width="25px" height="26px" version="1.1" style="shape-rendering:geometricPrecision; text-rendering:geometricPrecision; image-rendering:optimizeQuality; fill-rule:evenodd; clip-rule:evenodd"
viewBox="0 0 1.46 1.5"
 xmlns:xlink="http://www.w3.org/1999/xlink">
 <defs>
  <style type="text/css">
   <![CDATA[
    .fil0 {fill:#B5AA8F;fill-rule:nonzero}
   ]]>
  </style>
 </defs>
 <g id="Layer_x0020_1">
  <metadata id="CorelCorpID_0Corel-Layer"/>
  <path class="fil0" d="M1.45 0.28l-0.28 -0.27c-0.01,-0.01 -0.03,-0.01 -0.04,0l-1.12 1.17c-0.01,0.01 -0.01,0.03 0,0.04l0.28 0.27c0.01,0.01 0.03,0.01 0.04,0l1.12 -1.17c0.01,-0.01 0.01,-0.03 0,-0.04zm-1.38 0.92l1.08 -1.13 0.24 0.23 -0.11 0.12 -0.09 -0.08 -0.03 0.04 0.08 0.08 -0.1 0.1 -0.08 -0.08 -0.04 0.05 0.08 0.07 -0.09 0.1 -0.09 -0.07 -0.03 0.04 0.08 0.07 -0.1 0.11 -0.08 -0.08 -0.04 0.04 0.08 0.08 -0.09 0.1 -0.09 -0.08 -0.03 0.04 0.08 0.08 -0.1 0.1 -0.08 -0.08 -0.04 0.04 0.08 0.08 -0.1 0.1 -0.08 -0.08 -0.03 0.04 0.08 0.08 -0.12 0.12 -0.24 -0.23z"/>
 </g>
</svg>
