<?xml version="1.0" encoding="UTF-8"?>
<!DOCTYPE svg PUBLIC "-//W3C//DTD SVG 1.1//EN" "http://www.w3.org/Graphics/SVG/1.1/DTD/svg11.dtd">
<!-- Creator: CorelDRAW 2019 (64-Bit) -->
<svg xmlns="http://www.w3.org/2000/svg" xml:space="preserve" width="25px" height="29px" version="1.1" style="shape-rendering:geometricPrecision; text-rendering:geometricPrecision; image-rendering:optimizeQuality; fill-rule:evenodd; clip-rule:evenodd"
viewBox="0 0 1.29 1.47"
 xmlns:xlink="http://www.w3.org/1999/xlink"
 enable-background="new 0 0 512 512">
 <defs>
  <style type="text/css">
   <![CDATA[
    .fil0 {fill:#B5AA8F}
   ]]>
  </style>
 </defs>
 <g id="Layer_x0020_1">
  <metadata id="CorelCorpID_0Corel-Layer"/>
  <g id="_1965735546672">
   <g id="XMLID_287_">
    <path id="XMLID_308_" class="fil0" d="M1.04 0.62c0,-0.22 -0.18,-0.4 -0.4,-0.4 -0.21,0 -0.39,0.18 -0.39,0.4 0,0.22 0.18,0.39 0.39,0.39 0.22,0 0.4,-0.17 0.4,-0.39zm-0.4 0.34c-0.19,0 -0.34,-0.15 -0.34,-0.34 0,-0.19 0.15,-0.35 0.34,-0.35 0.19,0 0.35,0.16 0.35,0.35 0,0.19 -0.16,0.34 -0.35,0.34z"/>
    <path id="XMLID_311_" class="fil0" d="M1.13 1.03c0.01,-0.01 0.03,-0.02 0.04,-0.03 0.02,-0.04 0.02,-0.08 0.01,-0.13 0,-0.03 -0.01,-0.06 0,-0.08 0,-0.02 0.02,-0.04 0.04,-0.06 0.03,-0.03 0.07,-0.07 0.07,-0.11 0,-0.05 -0.04,-0.08 -0.07,-0.12 -0.01,-0.02 -0.04,-0.04 -0.04,-0.06 -0.01,-0.02 0,-0.05 0,-0.08 0.01,-0.04 0.01,-0.09 -0.01,-0.12 -0.03,-0.04 -0.08,-0.05 -0.12,-0.05 -0.03,-0.01 -0.06,-0.01 -0.08,-0.03 -0.01,-0.01 -0.03,-0.04 -0.04,-0.06 -0.02,-0.04 -0.04,-0.08 -0.09,-0.1 -0.04,-0.01 -0.08,0.01 -0.12,0.03 -0.03,0.01 -0.05,0.03 -0.08,0.03 -0.02,0 -0.05,-0.02 -0.07,-0.03 -0.04,-0.02 -0.08,-0.04 -0.13,-0.03 -0.04,0.02 -0.06,0.06 -0.08,0.1 -0.02,0.02 -0.03,0.05 -0.05,0.06 -0.01,0.02 -0.04,0.02 -0.07,0.03 -0.05,0 -0.09,0.01 -0.12,0.05 -0.02,0.03 -0.02,0.08 -0.01,0.12 0,0.03 0.01,0.06 0,0.08 -0.01,0.02 -0.03,0.04 -0.05,0.06 -0.03,0.04 -0.06,0.07 -0.06,0.12 0,0.04 0.03,0.08 0.06,0.11 0.02,0.02 0.04,0.04 0.05,0.06 0.01,0.02 0,0.05 0,0.08 -0.01,0.05 -0.01,0.09 0.01,0.13 0.01,0.01 0.03,0.02 0.04,0.03l-0.14 0.24c0,0.01 0,0.02 0,0.02 0.01,0.01 0.02,0.02 0.03,0.01l0.2 -0.05 0.06 0.2c0,0.01 0.01,0.02 0.02,0.02 0,0 0,0 0,0 0.01,0 0.02,0 0.03,-0.01l0.13 -0.23c0.02,0 0.05,-0.01 0.08,-0.02 0.02,-0.02 0.05,-0.03 0.07,-0.03 0.03,0 0.05,0.01 0.08,0.03 0.03,0.01 0.06,0.02 0.08,0.02l0.13 0.23c0.01,0.01 0.02,0.01 0.03,0.01 0,0 0,0 0,0 0.01,0 0.02,-0.01 0.02,-0.02l0.06 -0.2 0.2 0.05c0.01,0.01 0.02,0 0.03,-0.01 0,0 0,-0.01 0,-0.02l-0.14 -0.24zm-0.79 0.35l-0.04 -0.17c-0.01,-0.01 -0.02,-0.02 -0.04,-0.02l-0.17 0.05 0.12 -0.2c0.01,0.01 0.02,0.01 0.03,0.01 0.03,0 0.06,0.01 0.07,0.02 0.02,0.01 0.03,0.04 0.05,0.07 0.02,0.03 0.04,0.07 0.07,0.09l-0.09 0.15zm0.3 -0.25c-0.03,0 -0.06,0.02 -0.09,0.03 -0.04,0.02 -0.07,0.03 -0.09,0.02 -0.02,0 -0.04,-0.04 -0.06,-0.07 -0.01,-0.03 -0.03,-0.06 -0.06,-0.08 -0.02,-0.02 -0.06,-0.02 -0.09,-0.03 -0.04,-0.01 -0.07,-0.01 -0.09,-0.03 -0.01,-0.02 -0.01,-0.06 0,-0.09 0,-0.04 0.01,-0.07 0,-0.1 -0.01,-0.03 -0.04,-0.06 -0.06,-0.08 -0.03,-0.03 -0.05,-0.06 -0.05,-0.08 0,-0.03 0.02,-0.05 0.05,-0.08 0.02,-0.02 0.05,-0.05 0.06,-0.08 0.01,-0.03 0,-0.07 0,-0.1 -0.01,-0.04 -0.01,-0.07 0,-0.09 0.02,-0.02 0.05,-0.03 0.09,-0.03 0.03,-0.01 0.07,-0.02 0.09,-0.04 0.03,-0.01 0.05,-0.05 0.06,-0.08 0.02,-0.03 0.04,-0.06 0.06,-0.07 0.02,0 0.05,0.01 0.09,0.03 0.03,0.01 0.06,0.03 0.09,0.03 0.04,0 0.07,-0.02 0.1,-0.03 0.03,-0.02 0.07,-0.03 0.09,-0.03 0.02,0.01 0.04,0.04 0.05,0.07 0.02,0.03 0.04,0.07 0.06,0.08 0.03,0.02 0.07,0.03 0.1,0.04 0.03,0 0.07,0.01 0.08,0.03 0.02,0.02 0.01,0.05 0.01,0.09 -0.01,0.03 -0.01,0.07 0,0.1 0.01,0.03 0.03,0.06 0.06,0.08 0.02,0.03 0.05,0.05 0.05,0.08 0,0.02 -0.03,0.05 -0.05,0.08 -0.03,0.02 -0.05,0.05 -0.06,0.08 -0.01,0.03 -0.01,0.06 0,0.1 0,0.03 0.01,0.07 -0.01,0.09 -0.01,0.02 -0.05,0.02 -0.08,0.03 -0.03,0.01 -0.07,0.01 -0.1,0.03 -0.02,0.02 -0.04,0.05 -0.06,0.08 -0.01,0.03 -0.03,0.07 -0.05,0.07 -0.02,0.01 -0.06,0 -0.09,-0.02 -0.03,-0.01 -0.06,-0.03 -0.1,-0.03zm0.38 0.06c-0.01,0 -0.02,0.01 -0.03,0.02l-0.04 0.17 -0.09 -0.15c0.03,-0.02 0.05,-0.06 0.07,-0.09 0.01,-0.03 0.03,-0.05 0.04,-0.07 0.02,-0.01 0.05,-0.01 0.08,-0.02 0.01,0 0.02,0 0.03,-0.01l0.11 0.2 -0.17 -0.05z"/>
    <path id="XMLID_315_" class="fil0" d="M0.88 0.46c-0.01,-0.01 -0.02,-0.01 -0.03,0l-0.26 0.26 -0.15 -0.15c-0.01,-0.01 -0.02,-0.01 -0.03,0 -0.01,0.01 -0.01,0.03 0,0.04l0.16 0.16c0.01,0.01 0.01,0.01 0.02,0.01 0.01,0 0.01,0 0.02,-0.01l0.27 -0.27c0.01,-0.01 0.01,-0.03 0,-0.04l0 0z"/>
   </g>
  </g>
 </g>
</svg>
