<?xml version="1.0" encoding="UTF-8"?>
<!DOCTYPE svg PUBLIC "-//W3C//DTD SVG 1.1//EN" "http://www.w3.org/Graphics/SVG/1.1/DTD/svg11.dtd">
<!-- Creator: CorelDRAW 2019 (64-Bit) -->
<svg xmlns="http://www.w3.org/2000/svg" xml:space="preserve" width="25px" height="24px" version="1.1" style="shape-rendering:geometricPrecision; text-rendering:geometricPrecision; image-rendering:optimizeQuality; fill-rule:evenodd; clip-rule:evenodd"
viewBox="0 0 8.38 8.09"
 xmlns:xlink="http://www.w3.org/1999/xlink">
 <defs>
  <style type="text/css">
   <![CDATA[
    .fil1 {fill:#B5AA8F}
    .fil0 {fill:#B5AA8F;fill-rule:nonzero}
   ]]>
  </style>
 </defs>
 <g id="Layer_x0020_1">
  <metadata id="CorelCorpID_0Corel-Layer"/>
  <g id="_1965649719184">
   <path class="fil0" d="M6.09 6.38c0,0 0,0 0,0 -0.09,0 -0.17,-0.07 -0.17,-0.17l0 -0.08c0,-0.01 0,-0.01 0,-0.02 0.03,-0.25 0.19,-0.4 0.32,-0.53 0.05,-0.04 0.09,-0.08 0.13,-0.12 0.04,-0.05 0.11,-0.15 0.04,-0.27 -0.08,-0.15 -0.27,-0.19 -0.42,-0.15 -0.15,0.03 -0.21,0.16 -0.23,0.24 -0.02,0.09 -0.12,0.15 -0.21,0.12 -0.09,-0.02 -0.15,-0.12 -0.12,-0.21 0.07,-0.26 0.24,-0.43 0.49,-0.49 0.32,-0.07 0.65,0.06 0.79,0.32 0.12,0.22 0.09,0.48 -0.08,0.67 -0.05,0.05 -0.1,0.1 -0.15,0.15 -0.13,0.11 -0.2,0.19 -0.22,0.3l0 0.07c0,0.1 -0.07,0.17 -0.17,0.17z"/>
   <path class="fil0" d="M6.09 6.9c-0.04,0 -0.09,-0.02 -0.12,-0.05 -0.03,-0.03 -0.05,-0.08 -0.05,-0.12 0,-0.05 0.02,-0.09 0.05,-0.12 0.06,-0.07 0.18,-0.07 0.24,0 0.04,0.03 0.05,0.07 0.05,0.12 0,0.04 -0.01,0.09 -0.05,0.12 -0.03,0.03 -0.07,0.05 -0.12,0.05z"/>
   <path class="fil0" d="M7.83 1.5l-1.53 -1.46c-0.06,-0.06 -0.16,-0.05 -0.21,0.01l-6.05 6.33c-0.06,0.06 -0.05,0.15 0.01,0.21l1.52 1.46c0.06,0.06 0.16,0.05 0.22,-0.01l2.13 -2.23 0 -0.02c0,-0.16 0.01,-0.32 0.04,-0.47l-0.43 -0.41 -0.21 0.22 0.44 0.41 -0.52 0.55 -0.44 -0.42 -0.21 0.22 0.44 0.42 -0.52 0.54 -0.44 -0.41 -0.21 0.21 0.44 0.42 -0.63 0.66 -1.31 -1.25 5.84 -6.12 1.31 1.25 -0.63 0.66 -0.43 -0.42 -0.21 0.22 0.44 0.42 -0.53 0.54 -0.43 -0.41 -0.21 0.21 0.44 0.42 -0.37 0.38c0.16,-0.04 0.32,-0.06 0.49,-0.07l1.76 -1.85c0.06,-0.06 0.06,-0.15 0,-0.21zm-2.49 2.21l-0.35 -0.33 -0.21 0.22 0.26 0.25c0.1,-0.05 0.19,-0.1 0.3,-0.14zm-0.88 0.62l-0.2 -0.19 -0.21 0.22 0.23 0.22c0.05,-0.09 0.11,-0.17 0.18,-0.25z"/>
   <path class="fil1" d="M6.15 3.56c-1.23,0 -2.23,1 -2.23,2.23 0,1.24 1,2.24 2.23,2.24 1.23,0 2.23,-1 2.23,-2.24 0,-1.23 -1,-2.23 -2.23,-2.23zm0 0.36c-1.03,0 -1.87,0.84 -1.87,1.87 0,1.04 0.84,1.87 1.87,1.87 1.03,0 1.87,-0.83 1.87,-1.87 0,-1.03 -0.84,-1.87 -1.87,-1.87z"/>
  </g>
 </g>
</svg>
