<?xml version="1.0" encoding="UTF-8"?>
<!DOCTYPE svg PUBLIC "-//W3C//DTD SVG 1.1//EN" "http://www.w3.org/Graphics/SVG/1.1/DTD/svg11.dtd">
<!-- Creator: CorelDRAW 2019 (64-Bit) -->
<svg xmlns="http://www.w3.org/2000/svg" xml:space="preserve" width="25px" height="27px" version="1.1" style="shape-rendering:geometricPrecision; text-rendering:geometricPrecision; image-rendering:optimizeQuality; fill-rule:evenodd; clip-rule:evenodd"
viewBox="0 0 7.77 8.29"
 xmlns:xlink="http://www.w3.org/1999/xlink">
 <defs>
  <style type="text/css">
   <![CDATA[
    .fil0 {fill:#B5AA8F}
   ]]>
  </style>
 </defs>
 <g id="Layer_x0020_1">
  <metadata id="CorelCorpID_0Corel-Layer"/>
  <g id="_1965477532928">
   <g>
    <g>
     <path class="fil0" d="M7.7 1.83l-3.76 -1.82c-0.03,-0.01 -0.07,-0.01 -0.11,0l-3.76 1.82c-0.04,0.02 -0.07,0.06 -0.07,0.11l0 4.41c0,0.05 0.03,0.09 0.07,0.11l3.76 1.82c0.02,0.01 0.04,0.01 0.06,0.01 0.01,0 0.03,0 0.05,-0.01l3.76 -1.82c0.04,-0.02 0.07,-0.06 0.07,-0.11l0 -4.41c0,-0.05 -0.03,-0.09 -0.07,-0.11zm-3.81 -1.57l3.48 1.68 -1.01 0.49c-0.01,-0.01 -0.01,-0.01 -0.02,-0.02l-3.46 -1.67 1.01 -0.48zm-1.29 0.62l3.48 1.68 -0.71 0.34 -3.48 -1.68 0.71 -0.34zm3.57 1.91l0 1.27 -0.67 0.32 0 -1.27 0.67 -0.32zm1.36 3.49l-3.52 1.7 0 -4.15 0.84 -0.4c0.06,-0.03 0.08,-0.11 0.05,-0.17 -0.03,-0.06 -0.1,-0.08 -0.16,-0.05l-0.85 0.41 -0.34 -0.16c-0.06,-0.03 -0.13,-0.01 -0.16,0.06 -0.03,0.06 -0.01,0.13 0.05,0.16l0.32 0.15 0 4.15 -3.52 -1.7 0 -4.15 2.68 1.3c0.02,0 0.04,0.01 0.06,0.01 0.04,0 0.09,-0.03 0.11,-0.07 0.03,-0.06 0,-0.13 -0.06,-0.16l-2.63 -1.27 1.21 -0.58 3.65 1.76c0,0 0,0 0,0l0 1.46c0,0.04 0.02,0.08 0.05,0.1 0.02,0.01 0.05,0.02 0.07,0.02 0.02,0 0.03,-0.01 0.05,-0.01l0.91 -0.44c0.04,-0.02 0.07,-0.07 0.07,-0.11l0 -1.47 1.12 -0.54 0 4.15z"/>
    </g>
   </g>
   <g>
    <g>
     <path class="fil0" d="M1.25 5.8l-0.56 -0.26c-0.06,-0.03 -0.13,-0.01 -0.16,0.05 -0.03,0.07 0,0.14 0.06,0.17l0.55 0.26c0.02,0.01 0.03,0.02 0.05,0.02 0.05,0 0.09,-0.03 0.11,-0.07 0.03,-0.06 0.01,-0.14 -0.05,-0.17z"/>
    </g>
   </g>
   <g>
    <g>
     <path class="fil0" d="M1.75 5.47l-1.06 -0.51c-0.06,-0.03 -0.13,0 -0.16,0.06 -0.03,0.06 0,0.13 0.06,0.16l1.06 0.51c0.01,0.01 0.03,0.01 0.05,0.01 0.05,0 0.09,-0.02 0.11,-0.06 0.03,-0.06 0,-0.14 -0.06,-0.17z"/>
    </g>
   </g>
   <g>
   </g>
   <g>
   </g>
   <g>
   </g>
   <g>
   </g>
   <g>
   </g>
   <g>
   </g>
   <g>
   </g>
   <g>
   </g>
   <g>
   </g>
   <g>
   </g>
   <g>
   </g>
   <g>
   </g>
   <g>
   </g>
   <g>
   </g>
   <g>
   </g>
  </g>
 </g>
</svg>
